<svg width="65" height="64" viewBox="0 0 65 64" fill="none" xmlns="http://www.w3.org/2000/svg">
<g clip-path="url(#clip0_1390_3900)">
<path d="M63.0002 61.3333H60.3335V20H52.3335V61.3333H45.6668V38.6667H37.6668V61.3333H31.0002V30.6667H23.0002V61.3333H16.3335V46.6667H8.3335V61.3333H3.00016V1.33333C3.00016 0.979711 2.85969 0.640573 2.60964 0.390524C2.35959 0.140476 2.02045 0 1.66683 0C1.31321 0 0.974069 0.140476 0.72402 0.390524C0.473972 0.640573 0.333496 0.979711 0.333496 1.33333L0.333496 62.6667C0.333496 63.0203 0.473972 63.3594 0.72402 63.6095C0.974069 63.8595 1.31321 64 1.66683 64H63.0002C63.3538 64 63.6929 63.8595 63.943 63.6095C64.193 63.3594 64.3335 63.0203 64.3335 62.6667C64.3335 62.313 64.193 61.9739 63.943 61.7239C63.6929 61.4738 63.3538 61.3333 63.0002 61.3333Z" fill="#2F80ED"/>
<path d="M39.0001 10.12V2.78662C37.667 3.01384 36.4133 3.57528 35.356 4.41848C34.2988 5.26168 33.4725 6.35913 32.9545 7.60828C32.4365 8.85743 32.2435 10.2175 32.3937 11.5615C32.5439 12.9054 33.0324 14.1893 33.8134 15.2933L39.0001 10.12ZM48.2134 12H40.8801L35.7067 17.1866C36.8107 17.9676 38.0946 18.4561 39.4386 18.6063C40.7825 18.7565 42.1426 18.5635 43.3917 18.0455C44.6409 17.5275 45.7383 16.7012 46.5815 15.644C47.4247 14.5868 47.9862 13.333 48.2134 12ZM41.6667 2.78662V9.33329H48.2134C47.9355 7.69803 47.1562 6.18958 45.9833 5.0167C44.8104 3.84382 43.302 3.06451 41.6667 2.78662ZM13.6667 9.33329H25.6667C26.0204 9.33329 26.3595 9.19281 26.6095 8.94276C26.8596 8.69271 27.0001 8.35358 27.0001 7.99995C27.0001 7.64633 26.8596 7.30719 26.6095 7.05715C26.3595 6.8071 26.0204 6.66662 25.6667 6.66662H13.6667C13.3131 6.66662 12.974 6.8071 12.7239 7.05715C12.4739 7.30719 12.3334 7.64633 12.3334 7.99995C12.3334 8.35358 12.4739 8.69271 12.7239 8.94276C12.974 9.19281 13.3131 9.33329 13.6667 9.33329ZM13.6667 14.6666H20.3334C20.687 14.6666 21.0262 14.5261 21.2762 14.2761C21.5263 14.026 21.6667 13.6869 21.6667 13.3333C21.6667 12.9797 21.5263 12.6405 21.2762 12.3905C21.0262 12.1404 20.687 12 20.3334 12H13.6667C13.3131 12 12.974 12.1404 12.7239 12.3905C12.4739 12.6405 12.3334 12.9797 12.3334 13.3333C12.3334 13.6869 12.4739 14.026 12.7239 14.2761C12.974 14.5261 13.3131 14.6666 13.6667 14.6666ZM7.58673 9.10662C7.75146 9.205 7.93549 9.26666 8.12623 9.2874C8.31698 9.30813 8.50996 9.28746 8.69198 9.22679C8.87401 9.16611 9.04079 9.06686 9.18095 8.93583C9.3211 8.80479 9.43132 8.64504 9.50409 8.46751C9.57685 8.28997 9.61043 8.09881 9.60255 7.9071C9.59467 7.7154 9.54551 7.52765 9.45842 7.35668C9.37133 7.18571 9.24837 7.03555 9.09793 6.91646C8.94749 6.79737 8.77312 6.71215 8.58673 6.66662C8.27661 6.59087 7.94961 6.6289 7.66515 6.7738C7.38069 6.9187 7.15767 7.16085 7.0366 7.45624C6.91554 7.75163 6.90448 8.08066 7.00543 8.38351C7.10638 8.68636 7.31265 8.94295 7.58673 9.10662ZM8.3334 14.6666C8.64177 14.6648 8.93999 14.5562 9.17727 14.3593C9.41456 14.1623 9.57623 13.8892 9.63478 13.5864C9.69332 13.2837 9.6451 12.97 9.49833 12.6987C9.35157 12.4275 9.11533 12.2156 8.82985 12.099C8.54437 11.9824 8.2273 11.9683 7.93263 12.0592C7.63796 12.1501 7.38391 12.3404 7.21374 12.5975C7.04357 12.8547 6.96781 13.1629 6.99935 13.4697C7.03089 13.7764 7.16779 14.0628 7.38673 14.28C7.51132 14.4035 7.65907 14.5013 7.82152 14.5676C7.98397 14.634 8.15792 14.6676 8.3334 14.6666Z" fill="#2F80ED"/>
</g>
<defs>
<clipPath id="clip0_1390_3900">
<rect width="64" height="64" fill="white" transform="translate(0.333496)"/>
</clipPath>
</defs>
</svg>
