<svg width="65" height="64" viewBox="0 0 65 64" fill="none" xmlns="http://www.w3.org/2000/svg">
<g clip-path="url(#clip0_1390_3810)">
<path d="M52.8265 22.311L48.9415 24.03L45.4115 25.595L41.8665 27.159L38.3365 28.724L35.1225 30.142L32.5945 31.26L28.5475 33.048C28.1979 33.203 27.8011 33.2129 27.4441 33.0757C27.0872 32.9385 26.7993 32.6652 26.6435 32.316C26.4885 31.9664 26.4786 31.5696 26.6158 31.2126C26.753 30.8557 27.0262 30.5677 27.3755 30.412L31.3685 28.647L33.9125 27.522L37.1345 26.096L40.6805 24.531L44.2265 22.958L47.7495 21.401L51.6495 19.674C47.1765 10.972 38.1045 5.02197 27.6445 5.02197C12.7455 5.02197 0.666504 17.1 0.666504 32C0.666504 46.9 12.7455 58.978 27.6445 58.978C42.5445 58.978 54.6225 46.9 54.6225 32C54.6225 28.585 53.9905 25.317 52.8265 22.311Z" fill="#E0E0E0"/>
<path d="M48.9423 24.0302L45.4123 25.5952L41.8663 27.1592L38.3363 28.7242L35.1223 30.1422L32.5943 31.2602L28.5473 33.0482C28.1977 33.2032 27.8009 33.2132 27.4439 33.0759C27.087 32.9387 26.799 32.6655 26.6433 32.3162C26.4883 31.9666 26.4783 31.5698 26.6156 31.2129C26.7528 30.8559 27.026 30.568 27.3753 30.4122L31.3683 28.6472L33.9123 27.5222L37.1343 26.0962L40.6803 24.5312L44.2263 22.9582L47.7493 21.4012C43.9493 14.1862 36.3643 9.26123 27.6463 9.26123C15.1033 9.26123 4.90527 19.4592 4.90527 32.0002C4.90527 44.5412 15.1033 54.7392 27.6443 54.7392C40.1853 54.7392 50.3833 44.5412 50.3833 32.0002C50.3866 29.2785 49.8984 26.5785 48.9423 24.0302Z" fill="#2F80ED"/>
<path d="M45.4117 25.5952L41.8667 27.1592L38.3367 28.7242L35.1227 30.1422L32.5947 31.2602L28.5477 33.0482C28.1981 33.2032 27.8013 33.2132 27.4444 33.0759C27.0874 32.9387 26.7995 32.6655 26.6437 32.3162C26.4888 31.9666 26.4788 31.5698 26.616 31.2129C26.7533 30.8559 27.0265 30.568 27.3757 30.4122L31.3687 28.6472L33.9127 27.5222L37.1347 26.0962L40.6807 24.5312L44.2267 22.9582C41.0127 17.1002 34.7847 13.1152 27.6467 13.1152C17.2317 13.1152 8.76074 21.5862 8.76074 32.0002C8.76074 42.4142 17.2317 50.8852 27.6457 50.8852C38.0597 50.8852 46.5297 42.4142 46.5297 32.0002C46.5297 29.7492 46.1367 27.5992 45.4117 25.5952Z" fill="#EDEDED"/>
<path d="M41.8667 27.1592L38.3367 28.7242L35.1227 30.1422L32.5947 31.2602L28.5477 33.0482C28.1981 33.2032 27.8013 33.2132 27.4444 33.076C27.0874 32.9387 26.7995 32.6655 26.6437 32.3162C26.4887 31.9666 26.4788 31.5698 26.616 31.2129C26.7532 30.8559 27.0265 30.568 27.3757 30.4122L31.3687 28.6472L33.9127 27.5222L37.1347 26.0962L40.6807 24.5312C38.0907 20.0142 33.2117 16.9692 27.6467 16.9692C19.3607 16.9692 12.6157 23.7132 12.6157 32.0002C12.6157 40.2862 19.3597 47.0312 27.6467 47.0312C35.9337 47.0312 42.6757 40.2862 42.6757 32.0002C42.6757 30.3042 42.3907 28.6782 41.8667 27.1592Z" fill="#2F80ED"/>
<path d="M38.8213 32.0002C38.8213 38.1742 33.8193 43.1772 27.6443 43.1772C21.4693 43.1772 16.4683 38.1742 16.4683 32.0002C16.4683 25.8262 21.4713 20.8232 27.6453 20.8232C31.6533 20.8232 35.1603 22.9272 37.1343 26.0952L33.9123 27.5212L31.3683 28.6462L27.3753 30.4112C27.0367 30.5736 26.7747 30.8616 26.645 31.214C26.5154 31.5664 26.5282 31.9555 26.6807 32.2986C26.8333 32.6417 27.1136 32.9119 27.4621 33.0516C27.8106 33.1914 28.1999 33.1898 28.5473 33.0472L32.5943 31.2592L35.1223 30.1412L38.3363 28.7232C38.6513 29.7572 38.8213 30.8592 38.8213 32.0002Z" fill="#EDEDED"/>
<path d="M35.3525 32C35.352 34.0441 34.5397 36.0044 33.0943 37.4498C31.6489 38.8952 29.6887 39.7075 27.6445 39.708C23.3895 39.708 19.9365 36.255 19.9365 32C19.9365 27.745 23.3895 24.292 27.6445 24.292C28.8712 24.2908 30.0802 24.5834 31.1706 25.1454C32.2609 25.7073 33.2008 26.5223 33.9115 27.522L31.3675 28.647L27.3745 30.412C27.0359 30.5744 26.774 30.8623 26.6443 31.2147C26.5146 31.5672 26.5274 31.9562 26.68 32.2993C26.8325 32.6425 27.1128 32.9126 27.4613 33.0524C27.8099 33.1922 28.1991 33.1906 28.5465 33.048L32.5935 31.26L35.1215 30.142C35.2755 30.736 35.3525 31.36 35.3525 32Z" fill="#2F80ED"/>
<path d="M32.6543 32.0002C32.6542 33.1706 32.2443 34.3039 31.4959 35.2036C30.7475 36.1034 29.7077 36.7127 28.557 36.9259C27.4062 37.1391 26.2172 36.9427 25.1961 36.3709C24.175 35.799 23.3864 34.8877 22.967 33.7951C22.5476 32.7025 22.524 31.4975 22.9002 30.3893C23.2764 29.2811 24.0287 28.3396 25.0265 27.7281C26.0244 27.1166 27.2048 26.8737 28.363 27.0416C29.5212 27.2095 30.5841 27.7776 31.3673 28.6472L27.3743 30.4122C27.0357 30.5746 26.7737 30.8626 26.6441 31.215C26.5144 31.5674 26.5272 31.9565 26.6797 32.2996C26.8323 32.6427 27.1126 32.9128 27.4611 33.0526C27.8096 33.1924 28.1989 33.1908 28.5463 33.0482L32.5933 31.2602C32.6393 31.4992 32.6543 31.7462 32.6543 32.0002Z" fill="#F2C94C"/>
<path d="M53.5904 21.9721L52.8274 22.3111L48.9424 24.0301L45.4124 25.5951L41.8664 27.1591L38.3364 28.7241L35.1224 30.1421L32.5944 31.2601L28.5474 33.0481C28.1978 33.2031 27.801 33.2131 27.4441 33.0759C27.0871 32.9386 26.7992 32.6654 26.6434 32.3162C26.4884 31.9665 26.4785 31.5697 26.6157 31.2128C26.7529 30.8558 27.0262 30.5679 27.3754 30.4121L31.3684 28.6471L33.9124 27.5221L37.1344 26.0961L40.6804 24.5311L44.2264 22.9581L47.7494 21.4011L51.6494 19.6741L52.4274 19.3271L51.9574 20.2911L51.4414 21.3471L52.5744 21.6781L53.5904 21.9721Z" fill="#2F80ED"/>
<path d="M64.6665 20.4378L58.1765 23.3048L53.5905 21.9718L52.5725 21.6788L51.4395 21.3468L51.9555 20.2908L52.4265 19.3278L54.5225 15.0418L61.0125 12.1748L57.9295 18.4718L64.6665 20.4378Z" fill="#2F80ED"/>
</g>
<defs>
<clipPath id="clip0_1390_3810">
<rect width="64" height="64" fill="white" transform="translate(0.666504)"/>
</clipPath>
</defs>
</svg>
