<svg width="65" height="64" viewBox="0 0 65 64" fill="none" xmlns="http://www.w3.org/2000/svg">
<path d="M61.9997 16.0669V33.8802C61.9997 33.8802 58.1863 34.6269 57.3997 34.7335C56.613 34.8402 54.1597 35.6269 52.373 33.9069C49.6263 31.2402 39.853 21.5602 39.853 21.5602C39.2415 21.0598 38.486 20.7679 37.6969 20.7271C36.9077 20.6863 36.1262 20.8988 35.4663 21.3335C32.9863 22.6669 29.3063 24.5602 27.773 25.3335C27.255 25.6382 26.6681 25.8062 26.0674 25.8219C25.4667 25.8375 24.8718 25.7003 24.3387 25.4231C23.8055 25.1458 23.3516 24.7377 23.0194 24.2369C22.6872 23.7361 22.4877 23.1592 22.4397 22.5602C22.4685 21.872 22.6934 21.2065 23.0879 20.6419C23.4824 20.0773 24.0301 19.6372 24.6663 19.3735C28.173 17.2535 35.5597 13.1069 38.6397 11.4669C40.5063 10.4669 41.853 10.3869 44.4263 12.5469C47.5863 15.2135 50.3997 17.6402 50.3997 17.6402C50.7404 17.88 51.1283 18.0444 51.5375 18.1226C51.9467 18.2007 52.3679 18.1908 52.773 18.0935C56.3597 17.3335 61.9997 16.0669 61.9997 16.0669ZM23.1197 46.2535C23.3821 45.7024 23.477 45.0864 23.3928 44.4818C23.3085 43.8772 23.0488 43.3106 22.6457 42.8522C22.2427 42.3938 21.714 42.0637 21.1251 41.9027C20.5363 41.7418 19.9132 41.7572 19.333 41.9469C19.506 41.4045 19.5342 40.8264 19.415 40.2698C19.2957 39.7132 19.033 39.1974 18.653 38.7735C18.241 38.382 17.7346 38.1038 17.1832 37.966C16.6318 37.8281 16.0541 37.8353 15.5063 37.9869C15.6865 37.4475 15.7185 36.8697 15.5988 36.3138C15.4792 35.7579 15.2124 35.2443 14.8263 34.8269C14.148 34.1944 13.249 33.8528 12.3219 33.8752C11.3947 33.8976 10.5133 34.2823 9.86633 34.9469C8.413 36.3469 7.493 38.8669 8.78633 40.3469C10.0797 41.8269 11.5597 40.9335 12.693 40.6669C12.3863 41.8002 11.4397 42.8402 12.5997 44.3069C13.7597 45.7735 15.373 44.8935 16.5063 44.6402C16.1997 45.7602 15.293 46.9069 16.413 48.2669C17.533 49.6269 19.3863 48.9069 20.5997 48.5335C20.133 49.7335 19.1197 51.0402 20.4263 52.5335C21.733 54.0269 24.7063 53.3202 26.1597 51.9335C26.5045 51.632 26.7863 51.2653 26.9891 50.8545C27.1918 50.4438 27.3115 49.9971 27.3412 49.54C27.371 49.0829 27.3102 48.6244 27.1623 48.1909C27.0145 47.7573 26.7825 47.3572 26.4797 47.0135C26.0443 46.589 25.5 46.2933 24.907 46.1592C24.3139 46.025 23.6953 46.0577 23.1197 46.2535ZM49.7863 36.9869L38.5197 25.7069C37.9964 25.2088 37.3386 24.8751 36.6276 24.7472C35.9166 24.6192 35.1838 24.7025 34.5197 24.9869C32.9463 25.6802 30.9197 26.6269 29.3863 27.3469C28.3299 27.9811 27.1459 28.3727 25.9197 28.4935C24.6436 28.4942 23.4022 28.0787 22.3835 27.3102C21.3649 26.5417 20.6246 25.4621 20.2748 24.2349C19.9251 23.0077 19.9849 21.7 20.4454 20.5099C20.9058 19.3199 21.7417 18.3124 22.8263 17.6402C25.173 16.0135 30.573 13.1469 30.573 13.1469C29.8971 12.4446 29.0784 11.8955 28.1721 11.5366C27.2658 11.1778 26.2931 11.0176 25.3197 11.0669C21.7197 11.0669 14.1997 15.9869 14.1997 15.9869C13.4056 16.4051 12.5258 16.6347 11.6286 16.6578C10.7314 16.681 9.84091 16.497 9.02633 16.1202L3.15967 14.0802V34.4669C3.15967 34.4669 4.82633 34.9469 6.333 35.5602C6.67267 34.5564 7.23832 33.6441 7.98633 32.8935C9.19266 31.7611 10.7851 31.1308 12.4397 31.1308C14.0942 31.1308 15.6867 31.7611 16.893 32.8935C17.5676 33.5947 18.0498 34.4581 18.293 35.4002C19.2203 35.6802 20.0591 36.1959 20.7275 36.897C21.3958 37.5981 21.8709 38.4606 22.1063 39.4002C23.0234 39.6738 23.8545 40.1789 24.5197 40.8669C25.2457 41.6156 25.7569 42.5459 25.9997 43.5602C26.9519 43.8361 27.8158 44.3554 28.5063 45.0669C29.154 45.738 29.6332 46.5533 29.9044 47.4457C30.1756 48.3381 30.2311 49.2822 30.0663 50.2002C30.0663 50.2002 30.9063 51.1469 31.3997 51.6669C31.8859 52.1584 32.5475 52.4366 33.2389 52.4404C33.9302 52.4441 34.5948 52.1731 35.0863 51.6869C35.5779 51.2006 35.8561 50.5391 35.8599 49.8477C35.8636 49.1563 35.5926 48.4917 35.1063 48.0002C35.1063 48.0002 31.4797 44.2002 31.7597 43.9069C32.0397 43.6135 36.6663 48.4002 36.6663 48.4935C36.9071 48.7334 37.1927 48.9235 37.507 49.053C37.8212 49.1825 38.1578 49.2488 38.4977 49.2482C38.8376 49.2476 39.174 49.18 39.4877 49.0494C39.8015 48.9188 40.0865 48.7276 40.3263 48.4869C40.5662 48.2461 40.7563 47.9605 40.8858 47.6462C41.0153 47.332 41.0816 46.9953 41.081 46.6555C41.0804 46.3156 41.0128 45.9792 40.8822 45.6655C40.7516 45.3517 40.5604 45.0667 40.3197 44.8269L39.9863 44.5069C39.9863 44.5069 35.4397 40.5069 35.7863 40.1202C36.133 39.7335 41.773 45.0402 41.7863 45.0402C42.2763 45.4814 42.9163 45.7189 43.5755 45.704C44.2347 45.6891 44.8634 45.4231 45.333 44.9602C45.7854 44.5068 46.0504 43.8996 46.0751 43.2596C46.0998 42.6196 45.8824 41.9938 45.4663 41.5069C45.4663 41.5069 41.173 36.9735 41.4663 36.6402C41.7597 36.3069 46.0397 40.6402 46.0397 40.6402C46.5241 41.1264 47.1819 41.4003 47.8683 41.4015C48.5547 41.4028 49.2134 41.1313 49.6997 40.6469C50.1859 40.1624 50.4598 39.5046 50.461 38.8182C50.4623 38.1319 50.1908 37.4731 49.7063 36.9869H49.7863Z" fill="#2F80ED"/>
</svg>
