<svg width="64" height="64" viewBox="0 0 64 64" fill="none" xmlns="http://www.w3.org/2000/svg">
<path d="M38.8376 5.50396H40.7446C40.3944 2.93221 38.1897 0.942383 35.5233 0.942383H19.0335C16.1245 0.942383 13.7582 3.30865 13.7582 6.21766V42.9203C13.7582 44.8316 12.2035 46.3863 10.2922 46.3863C8.38089 46.3863 6.8262 44.8316 6.8262 42.9203V20.3261H4.94385V42.9203C4.94385 45.8693 7.3432 48.2687 10.2922 48.2687C13.2412 48.2687 15.6405 45.8693 15.6405 42.9203V6.21766C15.6405 4.34679 17.1626 2.82474 19.0335 2.82474H35.5233C37.149 2.82474 38.5085 3.97524 38.8376 5.50396ZM37.0086 18.9042V32.7246C37.0086 34.2967 38.2876 35.5757 39.8597 35.5757C41.4319 35.5757 42.7108 34.2967 42.7108 32.7246V18.9042C42.7108 17.3321 41.4319 16.0531 39.8597 16.0531C38.2876 16.0531 37.0086 17.3321 37.0086 18.9042ZM38.2346 22.2872C38.2346 21.3899 38.9627 20.6619 39.8599 20.6619C40.7572 20.6619 41.4851 21.3899 41.4851 22.2872V29.333C41.4851 30.2387 40.7572 30.9667 39.8599 30.9667C38.9627 30.9667 38.2346 30.2387 38.2346 29.333V22.2872Z" fill="#2F80ED"/>
<path d="M50.306 10.7378C46.6543 8.94956 42.5413 8.14953 40.8001 7.86719V14.2672C42.9554 14.7001 44.5931 16.6107 44.5931 18.9072V32.7237C44.5931 35.3307 42.466 37.4578 39.8589 37.4578C37.2519 37.4578 35.1249 35.3307 35.1249 32.7237V18.9072C35.1249 16.6107 36.7625 14.7001 38.9178 14.2672V7.86719C37.1766 8.14953 33.0637 8.94956 29.4213 10.7378C26.3907 12.2248 24.1601 14.9731 23.2943 18.2766C20.6496 28.4225 16.2166 52.9213 32.3766 61.2507C34.6637 62.4366 37.2519 63.0578 39.8589 63.0578C42.466 63.0578 45.0543 62.4366 47.3413 61.2507C63.4919 52.9213 59.0872 28.4225 56.4425 18.2766C55.5766 14.9731 53.3366 12.2154 50.306 10.7378ZM47.3413 55.406C45.4457 56.9376 42.421 58.5213 41.6472 58.5213C41.2613 58.5213 40.8943 58.2766 40.7531 57.8907C40.5837 57.4013 40.8378 56.8648 41.3272 56.6954C43.0308 56.0836 44.659 55.1613 46.1554 53.9472C46.5507 53.6178 47.1437 53.6837 47.4731 54.0884C47.8025 54.493 47.7366 55.086 47.3413 55.406ZM54.1084 46.126C53.1766 48.3754 51.9342 50.4554 50.4284 52.3001C50.1072 52.7228 49.4804 52.7494 49.1107 52.4413C48.706 52.1119 48.6496 51.519 48.9696 51.1143C50.3625 49.4107 51.5013 47.4907 52.3672 45.4013C52.5648 44.9213 53.1201 44.6954 53.6001 44.8931C54.0802 45.1001 54.306 45.646 54.1084 46.126Z" fill="#2F80ED"/>
</svg>
