<svg width="65" height="56" viewBox="0 0 65 56" fill="none" xmlns="http://www.w3.org/2000/svg">
<g clip-path="url(#clip0_1390_3837)">
<path d="M28.3837 48.022H25.0937C20.4161 47.2476 16.1648 44.8391 13.096 41.225C10.0271 37.6108 8.33965 33.0253 8.33374 28.284C8.3424 25.0785 9.13037 21.9232 10.6297 19.09L13.0857 22.49C13.4869 23.0463 14.0371 23.478 14.6729 23.7353C15.3087 23.9925 16.0042 24.0649 16.6794 23.9441C17.3545 23.8233 17.9818 23.5142 18.4889 23.0524C18.9961 22.5906 19.3624 21.9949 19.5457 21.334L21.4997 14.308L24.1997 4.61801C24.3508 4.07638 24.3744 3.50712 24.2685 2.95486C24.1627 2.4026 23.9303 1.88238 23.5897 1.43499C23.2491 0.987593 22.8094 0.625201 22.3052 0.376233C21.8011 0.127265 21.246 -0.00150825 20.6837 1.33287e-05L11.1777 0.0140133L3.97374 0.0240133C3.30377 0.0251692 2.64711 0.21121 2.07609 0.561644C1.50508 0.912079 1.04185 1.41331 0.737443 2.01014C0.433033 2.60696 0.299248 3.27622 0.350821 3.94421C0.402395 4.61219 0.637326 5.25299 1.02974 5.79601L5.54774 12.052C2.77151 15.9373 1.03623 20.4686 0.507167 25.2144C-0.021893 29.9602 0.672893 34.7625 2.52535 39.1637C4.3778 43.565 7.32623 47.4187 11.0898 50.3578C14.8534 53.2969 19.3067 55.2234 24.0257 55.954C24.3797 56.004 24.7397 56.002 25.0937 55.95V56H28.3837C30.5657 56 32.3337 54.232 32.3337 52.05V51.97C32.3332 50.9228 31.9168 49.9186 31.1761 49.1782C30.4354 48.4379 29.431 48.022 28.3837 48.022Z" fill="#2F80ED"/>
<path d="M59.12 43.948C61.8962 40.0627 63.6315 35.5314 64.1606 30.7856C64.6896 26.0398 63.9948 21.2375 62.1424 16.8363C60.2899 12.435 57.3415 8.58132 53.5779 5.64224C49.8144 2.70316 45.361 0.776577 40.642 0.046C40.2876 -0.00362789 39.928 -0.00228089 39.574 0.05V0H36.284C34.104 0 32.334 1.768 32.334 3.948V4.028C32.334 5.0756 32.7501 6.0803 33.4909 6.82107C34.2317 7.56184 35.2364 7.978 36.284 7.978H39.574C49.234 9.578 56.322 17.924 56.334 27.716C56.3253 30.9215 55.5374 34.0768 54.038 36.91L51.582 33.51C51.1808 32.9537 50.6306 32.522 49.9948 32.2648C49.359 32.0075 48.6635 31.9351 47.9883 32.0559C47.3132 32.1767 46.6859 32.4858 46.1788 32.9476C45.6717 33.4094 45.3053 34.0051 45.122 34.666L43.168 41.692L40.468 51.382C40.3169 51.9236 40.2934 52.4929 40.3992 53.0452C40.505 53.5974 40.7374 54.1176 41.078 54.565C41.4186 55.0124 41.8583 55.3748 42.3625 55.6238C42.8667 55.8727 43.4217 56.0015 43.984 56L53.492 55.986L60.694 55.976C61.3641 55.9752 62.021 55.7894 62.5924 55.4392C63.1637 55.0889 63.6272 54.5877 63.9318 53.9908C64.2365 53.3939 64.3704 52.7245 64.3189 52.0563C64.2674 51.3881 64.0325 50.7472 63.64 50.204L59.12 43.948Z" fill="#2F80ED"/>
</g>
<defs>
<clipPath id="clip0_1390_3837">
<rect width="64" height="56" fill="white" transform="translate(0.333496)"/>
</clipPath>
</defs>
</svg>
