<svg width="64" height="64" viewBox="0 0 64 64" fill="none" xmlns="http://www.w3.org/2000/svg">
<g clip-path="url(#clip0_1390_3861)">
<path d="M15.5153 41.8909C15.1274 41.5031 14.8365 40.9212 14.7395 40.3394C12.7032 41.8909 11.4426 43.6364 6.69105 44.0243C6.40014 44.0243 6.30317 44.0243 6.30317 44.0243C5.81832 44.1212 5.43044 44.6061 5.43044 45.0909C5.43044 45.5758 5.91529 46.0606 6.49711 45.9637H6.88499C6.98196 45.9637 7.07893 45.9637 7.1759 45.9637C8.33953 45.9637 9.01832 46.2546 9.11529 46.5455C9.21226 46.6425 9.50317 47.8061 6.10923 51.2C2.23044 54.7879 1.93953 60.6061 1.93953 60.8C1.93953 61.0909 2.0365 61.2849 2.23044 61.4788C2.42438 61.6728 2.71529 61.7697 2.90923 61.7697C12.5092 61.3818 14.5456 54.8849 17.3577 54.8849C18.3274 54.8849 18.0365 57.3091 18.0365 57.5031C17.9395 58.7637 19.8789 58.9576 19.9759 57.697C19.9759 57.697 19.9759 57.5031 19.9759 57.3091C20.2668 53.8182 21.5274 52.1697 22.788 50.4243C23.0789 50.0364 23.3698 49.6485 23.5638 49.2606C22.982 49.1637 22.4001 48.8728 22.0123 48.4849L15.5153 41.8909ZM15.3214 36.7515C16.8729 31.2243 19.2971 24.6303 22.982 18.6182C19.8789 20.2667 15.6123 21.0425 13.091 18.5212C12.8971 18.3273 12.6062 18.2303 12.2183 18.2303C11.8304 18.2303 11.6365 18.4243 11.5395 18.7152L1.0668 38.7879C0.872865 39.0788 0.872865 39.5637 1.16377 39.8546C1.45468 40.1455 1.84256 40.2425 2.13347 40.1455L15.3214 36.7515ZM45.285 41.0182C39.2729 44.7031 32.7759 47.1273 27.1517 48.6788L23.7577 61.8667C23.6607 62.2546 23.7577 62.6425 24.0486 62.8364C24.2426 63.0303 24.4365 63.0303 24.6304 63.0303C24.8244 63.0303 24.9213 63.0303 25.1153 62.9334L45.091 52.4606C45.382 52.3637 45.5759 52.0728 45.5759 51.7818C45.5759 51.4909 45.4789 51.2 45.285 51.0061C42.9577 48.4849 43.6365 44.1212 45.285 41.0182ZM36.6547 15.5152C34.6183 17.5515 34.0365 20.1697 35.2001 21.4303C36.6547 22.8849 39.5638 21.5273 41.1153 19.9758C42.5698 18.5212 44.0244 15.5152 42.5698 14.0606C41.1153 12.6061 38.2062 13.9637 36.6547 15.5152ZM61.4789 2.61821C60.5092 1.55154 59.1516 0.969727 57.6971 0.969727H57.6001C54.5941 1.0667 50.1335 1.45457 45.382 3.00609C46.7395 6.98185 57.0183 17.2606 61.091 18.6182C62.6426 13.8667 63.0304 9.40609 63.1274 6.40003C63.0304 4.94548 62.5456 3.58791 61.4789 2.61821ZM16.8729 40.5334L23.5638 47.2243C23.7577 47.4182 23.9517 47.5152 24.2426 47.5152C24.3395 47.5152 24.4365 47.5152 24.5335 47.5152C29.5759 46.2546 35.685 44.2182 41.5032 41.1152C36.9456 40.3394 31.5153 36.5576 27.8304 32.7758C24.9213 29.7697 23.0789 26.7637 22.3032 24.0485C19.588 29.4788 17.7456 35.1031 16.582 39.6606C16.485 39.8546 16.582 40.2425 16.8729 40.5334Z" fill="#2F80ED"/>
<path d="M43.5395 3.58789C34.7153 6.88486 28.7032 12.703 23.9517 20.8485C23.5638 23.4667 25.5032 27.3455 29.188 31.2243C34.3274 36.6546 40.7274 39.8546 44.4123 38.9818C44.5092 38.9818 44.6062 38.9818 44.7032 38.9818C51.9759 34.4243 57.2123 28.6061 60.3153 20.3636C55.7577 19.0061 44.9941 8.24244 43.5395 3.58789ZM42.4729 21.3333C40.0486 23.7576 36.0729 25.0182 33.8426 22.7879C31.8062 20.7515 32.485 16.9697 35.2971 14.1576C37.7214 11.7333 41.6971 10.3758 43.9274 12.703C46.2547 15.0303 44.8001 19.0061 42.4729 21.3333Z" fill="#2F80ED"/>
</g>
<defs>
<clipPath id="clip0_1390_3861">
<rect width="64" height="64" fill="white"/>
</clipPath>
</defs>
</svg>
