<svg width="47" height="39" viewBox="0 0 47 39" fill="none" xmlns="http://www.w3.org/2000/svg">
<path d="M32.0156 3.74062C31.973 2.73629 31.5449 1.78705 30.8202 1.09035C30.0956 0.393643 29.1302 0.00311716 28.125 0H18.75C14.7312 0 14.8594 3.74062 14.8594 3.74062M16.4219 3.74062C16.4219 3.74062 16.3484 1.5625 18.75 1.5625H28.125C28.7184 1.55749 29.2911 1.7808 29.7244 2.18624C30.1578 2.59167 30.4187 3.14819 30.4531 3.74062M6.25 2.96562H9.375C9.82187 2.96562 10.1562 3.3 10.1562 3.74688C10.1562 4.19375 9.82187 4.52813 9.375 4.52813H6.25C6.1467 4.5307 6.04396 4.51225 5.94801 4.4739C5.85206 4.43555 5.76491 4.3781 5.69184 4.30503C5.61878 4.23197 5.56133 4.14481 5.52298 4.04886C5.48463 3.95291 5.46618 3.85017 5.46875 3.74688C5.46875 3.3 5.80312 2.96562 6.25 2.96562ZM37.5 2.96562H40.625C41.0719 2.96562 41.4062 3.3 41.4062 3.74688C41.4062 4.19375 41.0719 4.52813 40.625 4.52813H37.5C37.3967 4.5307 37.294 4.51225 37.198 4.4739C37.1021 4.43555 37.0149 4.3781 36.9418 4.30503C36.8688 4.23197 36.8113 4.14481 36.773 4.04886C36.7346 3.95291 36.7162 3.85017 36.7188 3.74688C36.7188 3.3 37.0531 2.96562 37.5 2.96562ZM0.884375 5.30312H4.51719C4.94688 5.78125 5.56406 6.09063 6.25 6.09063H9.375C10.0625 6.09063 10.6781 5.78125 11.1094 5.30312H21.0938V16.6953H20.3406C19.5156 16.6953 18.75 17.3297 18.75 18.2V20.9344H16.4281C12.0906 20.9031 6.95937 19.7859 0 17.8859V6.18906C0 5.68437 0.38125 5.30312 0.884375 5.30312ZM22.6562 5.30312H24.2188V16.6953H22.6562V5.30312ZM25.7812 5.30312H35.7656C36.1969 5.78125 36.8125 6.09063 37.5 6.09063H40.625C41.3125 6.09063 41.9281 5.78125 42.3594 5.30312H46.0422C46.5469 5.30312 46.9266 5.68438 46.9266 6.1875V17.9016C39.8875 19.8516 36.5047 20.9344 32.0219 20.9344H28.125V18.2C28.125 17.3297 27.3594 16.6953 26.5344 16.6953H25.7812V5.30312ZM20.3125 18.2516C20.3125 18.2516 20.3141 18.2547 20.3406 18.2547H26.5625V27.1875C26.5625 27.1875 26.5609 27.1844 26.5344 27.1844H20.3125V18.2516ZM22.3047 19.3719C21.5938 19.3719 21.0938 20 21.0938 20.6422V24.3547C21.0938 24.9969 21.5938 25.6219 22.3047 25.6219H24.5703C25.2812 25.6219 25.7812 24.9969 25.7812 24.3563V20.6406C25.7812 20 25.2812 19.3719 24.5703 19.3719H22.3047ZM1.5625 19.925C7.57812 21.5109 12.2797 22.4656 16.4219 22.4969H18.75V27.2422C18.75 28.1125 19.5156 28.7469 20.3406 28.7469H26.5344C27.3594 28.7469 28.125 28.1125 28.125 27.2422V22.4969H32.0219C36.2641 22.4969 39.6141 21.5688 45.3125 19.9766V37.3406C45.3125 37.7875 44.9781 38.1219 44.5312 38.1219H2.34375C2.24045 38.1245 2.13771 38.106 2.04176 38.0676C1.94581 38.0293 1.85866 37.9719 1.78559 37.8988C1.71253 37.8257 1.65508 37.7386 1.61673 37.6426C1.57838 37.5467 1.55993 37.4439 1.5625 37.3406V19.925ZM22.6562 20.9344H24.2188V24.0594H22.6562V20.9344Z" fill="#2F80ED"/>
</svg>
