<svg width="50" height="34" viewBox="0 0 50 34" fill="none" xmlns="http://www.w3.org/2000/svg">
<path d="M38.4983 15.3646L38.8889 22.2223C38.9467 23.2205 38.3536 24.1464 37.1094 25C35.8652 25.8536 34.1652 26.53 32.0095 27.0291C29.8539 27.5283 27.5174 27.7778 25 27.7778C22.4826 27.7778 20.1461 27.5283 17.9905 27.0291C15.8348 26.53 14.1348 25.8536 12.8906 25C11.6464 24.1464 11.0532 23.2205 11.1111 22.2223L11.5017 15.3646L23.9583 19.2926C24.2766 19.3938 24.6238 19.4445 25 19.4445C25.3762 19.4445 25.7234 19.3938 26.0417 19.2926L38.4983 15.3646ZM50 8.33337C50 8.66613 49.8409 8.89037 49.5226 9.00611L25.217 16.645C25.1592 16.6595 25.0868 16.6667 25 16.6667C24.9132 16.6667 24.8408 16.6595 24.783 16.645L10.6337 12.1746C10.0116 12.6664 9.49798 13.473 9.09289 14.5943C8.68779 15.7155 8.44183 17.0067 8.35502 18.4679C9.26648 18.9888 9.72221 19.7773 9.72221 20.8334C9.72221 21.8317 9.30266 22.6057 8.46356 23.1554L9.72218 32.5521C9.75113 32.7547 9.69326 32.9355 9.54858 33.0946C9.41837 33.2538 9.24476 33.3334 9.02776 33.3334H4.8611C4.6441 33.3334 4.4705 33.2538 4.34029 33.0946C4.19561 32.9355 4.13773 32.7547 4.16666 32.5521L5.42533 23.1554C4.58624 22.6057 4.16669 21.8316 4.16669 20.8334C4.16669 19.7772 4.63688 18.9743 5.57726 18.4245C5.73639 15.4297 6.4453 13.0426 7.70399 11.2631L0.477427 9.00611C0.159142 8.89039 0 8.66615 0 8.33337C0 8.0006 0.159142 7.77635 0.477427 7.66063L24.783 0.0217072C24.8408 0.00723543 24.9132 0 25 0C25.0868 0 25.1592 0.00723543 25.217 0.0217072L49.5225 7.6606C49.8408 7.77634 50 8.0006 50 8.33337Z" fill="#2F80ED"/>
</svg>
